# xmcd
#
# Track frame offsets:
#	150
#	12757
#	24517
#	37667
#	48852
#	60600
#	73742
#	84967
#	97885
#	112562
#	124962
#	137375
#	147907
#
# Disc length: 2144 seconds
#
# Revision: 0
# Processed by: cddbd v1.4PL0 Copyright (c) Steve Scherf et al.
# Submitted via: dBpowerAMP V4.0
#
DISCID=95085e0d
DTITLE=defrent - Valentine's Favourites
DYEAR=1999
DGENRE=Blues
TTITLE0=When a man loves a woman-Percy Sledge
TTITLE1=Only you-The Platters
TTITLE2=Spanish Harlem-Ben E.King
TTITLE3=Hey Paula-Paul and Paula
TTITLE4=Down in the boondocks-Billy Joe Royal
TTITLE5=Wasted days and wasted nights-freddy fender
TTITLE6=This magic Moment-the drifters 
TTITLE7=Only love can break a heart-gene pitney
TTITLE8=She wears my ring-solomon king
TTITLE9=Will you love me tomorrow-the shirelles
TTITLE10=Red roses for a blue lady-vic dana
TTITLE11=What a wonderful-louis armstrong
TTITLE12=My special prayer-percy sledge
EXTD=
EXTT0=
EXTT1=
EXTT2=
EXTT3=
EXTT4=
EXTT5=
EXTT6=
EXTT7=
EXTT8=
EXTT9=
EXTT10=
EXTT11=
EXTT12=
PLAYORDER=
